<svg height="512" viewBox="0 0 128 128" width="512" xmlns="http://www.w3.org/2000/svg"><g><path d="m1.75 78.259c0-28.579 27.87-61.759 62.25-61.759s62.25 33.176 62.25 61.755-27.87 41.745-62.25 41.745-62.25-13.162-62.25-41.741z" fill="#fcf7ed"/><g fill="#474979"><path d="m117.205 48.64c10.318-11.593 12.117-27.045 3.785-35.377-8.754-8.754-25.368-6.333-37.108 5.407q-.581.58-1.129 1.177c14.492 5.236 26.696 16.101 34.452 28.793z"/><path d="m45.247 19.847c-.367-.4-.742-.79-1.129-1.177-11.74-11.74-28.354-14.161-37.108-5.407-8.332 8.337-6.533 23.784 3.79 35.377 7.751-12.692 19.955-23.557 34.447-28.793z"/><ellipse cx="91.235" cy="59.985" rx="13.781" ry="18.406" transform="matrix(.707 -.707 .707 .707 -15.694 82.082)"/><ellipse cx="36.765" cy="59.985" rx="18.406" ry="13.781" transform="matrix(.707 -.707 .707 .707 -31.648 43.566)"/></g><circle cx="42.168" cy="54.583" fill="#fcf7ed" r="4.687"/><circle cx="85.832" cy="54.583" fill="#fcf7ed" r="4.687"/><path d="m75.266 93-1.213.11a7.7 7.7 0 0 1 -8.314-6.808c0-.035-.016-.068-.021-.1l-.008-.035c2.714-.629 7.712-2.3 7.712-6.092 0-5.2-4.218-6.419-9.422-6.419s-9.422 1.216-9.422 6.419c0 3.794 5 5.463 7.711 6.092v.012c-.008.042-.022.082-.027.126a7.7 7.7 0 0 1 -8.312 6.808l-1.216-.113a1.75 1.75 0 0 0 -.315 3.486l1.214.11q.5.045 1 .045a11.246 11.246 0 0 0 9.367-5.103 11.245 11.245 0 0 0 9.37 5.107q.5 0 1-.045l1.214-.11a1.75 1.75 0 0 0 -.318-3.49z" fill="#474979"/></g></svg>